<svg width="1770" height="817" viewBox="0 0 1770 817" fill="none" xmlns="http://www.w3.org/2000/svg">
<path d="M903.943 99.7268C906.483 102.984 907.194 104.754 907.665 108.727C906.875 114.618 902.887 118.89 899.068 123.164C897.99 124.397 896.913 125.632 895.837 126.867C895.274 127.514 894.71 128.16 894.129 128.826C886.023 138.216 878.236 147.883 870.732 157.758C868.755 160.359 866.753 162.938 864.742 165.513C813.049 231.946 762.113 314.607 744.38 397.852C752.48 391.657 760.273 385.3 767.72 378.332C769.886 376.313 772.076 374.348 774.318 372.414C779.541 367.882 784.583 363.152 789.653 358.45C791.373 356.859 793.098 355.274 794.826 353.692C800.187 348.774 805.465 343.821 810.568 338.633C812.382 336.85 814.26 335.192 816.193 333.539C822.301 328.281 828.909 322.559 833.38 315.852C833.879 315.5 833.229 315.5 834.379 315C834.729 314.5 834.879 314.5 835.379 314C836.579 311.779 838.587 310.427 840.392 308.68C840.986 308.097 841.579 307.515 842.191 306.914C842.81 306.316 843.43 305.718 844.068 305.102C848.452 300.845 852.62 296.507 856.61 291.878C860.21 287.758 864.013 283.823 867.775 279.852C872.089 275.278 876.275 270.613 880.38 265.852C880.869 265.286 881.357 264.719 881.86 264.136C883.266 262.502 884.667 260.865 886.068 259.227C887.108 258.011 888.148 256.794 889.189 255.578C889.978 254.657 889.978 254.657 890.782 253.716C892.365 251.87 893.952 250.028 895.54 248.188C901.296 241.514 906.918 234.769 912.38 227.852C913.802 226.075 915.226 224.3 916.65 222.526C926.607 210.111 936.419 197.611 945.907 184.832C947.331 182.918 948.763 181.009 950.197 179.102C955.722 171.703 960.892 164.156 965.765 156.309C966.195 155.626 966.625 154.943 967.068 154.239C967.443 153.632 967.818 153.026 968.205 152.401C970.398 149.511 972.297 148.864 975.818 148.352C998 149.115 1026.82 177.844 1041.38 192.852C1045.4 198.431 1047.36 202.919 1046.38 209.852C1043.59 218.242 1039.34 225.646 1034.57 233.039C1033.92 234.059 1033.27 235.078 1032.6 236.129C1031.24 238.279 1029.86 240.427 1028.49 242.572C1026.38 245.854 1024.28 249.145 1022.19 252.438C1015.47 262.995 1008.66 273.48 1001.7 283.879C999.481 287.195 997.265 290.514 995.048 293.832C994.603 294.498 994.159 295.164 993.7 295.85C985.852 307.6 978.005 319.349 970.331 331.213C961.753 344.473 953.055 357.655 944.38 370.852C943.576 372.076 943.576 372.076 942.755 373.325C929.014 394.23 915.25 415.119 901.342 435.915C899.473 438.713 897.609 441.514 895.747 444.317C885.492 459.749 875.129 475.108 864.758 490.463C857.122 501.771 849.523 513.102 841.978 524.471C838.115 530.293 834.223 536.091 830.287 541.864C829.551 542.942 828.816 544.02 828.058 545.132C826.61 547.254 825.16 549.374 823.708 551.494C819.929 557.029 816.229 562.602 812.615 568.246C812.205 568.885 811.795 569.525 811.372 570.183C810.374 571.739 809.377 573.295 808.38 574.852C809.199 574.775 810.018 574.699 810.861 574.62C859.665 570.066 908.464 566.125 957.397 563.263C962.646 562.955 967.894 562.639 973.143 562.318C1056.47 557.239 1140.23 554.629 1240.38 553.852C1241.22 553.848 1242.06 553.844 1242.92 553.841C1426.34 553.038 1426.34 553.038 1569.38 570.852C1570.49 571.08 1571.61 571.308 1572.75 571.543C1622.25 581.87 1622.25 581.87 1633.19 597.727C1636.9 604.099 1637.39 610.292 1635.8 617.461C1630.5 633.757 1617.85 647.575 1606.38 659.852C1605.62 660.665 1604.86 661.479 1604.08 662.317C1587.96 679.015 1565.44 696.371 1541.6 698.047C1532.5 697.817 1524.13 694.234 1515.71 691.094C1508.87 688.542 1502 686.036 1495.13 683.539C1493.97 683.119 1493.97 683.119 1492.79 682.689C1476.81 676.891 1460.68 671.704 1444.38 666.852C1442.8 666.377 1442.8 666.377 1441.2 665.893C1421.17 659.901 1400.79 655.326 1380.38 650.852C1379.65 650.691 1378.92 650.53 1378.16 650.364C1337.49 641.468 1296.18 635.603 1254.81 631.117C1252.44 630.858 1250.06 630.591 1247.69 630.322C1210.81 626.145 1173.75 623.628 1136.69 621.664C1135.66 621.609 1135.66 621.609 1134.6 621.553C1110.24 620.272 1085.84 619.679 1061.44 619.289C1060.16 619.268 1058.88 619.248 1057.57 619.226C1005.79 618.393 954.095 618.99 902.38 621.852C901.43 621.904 900.481 621.956 899.502 622.01C869.401 623.674 839.389 625.98 809.38 628.852C808.408 628.945 807.435 629.038 806.433 629.134C793.746 630.349 781.062 631.589 768.38 632.852C768.104 633.599 767.827 634.347 767.542 635.117C766.487 637.601 765.398 639.458 763.798 641.61C763.285 642.308 762.772 643.006 762.244 643.725C761.691 644.468 761.138 645.211 760.568 645.977C756.425 651.611 752.375 657.284 748.48 663.092C723.719 700.003 723.719 700.003 705.005 704.602C683.184 708.559 660.37 707.047 641.38 694.852C638.273 691.391 636.483 689.211 636.13 684.539C636.559 678.214 640.664 674.048 644.505 669.227C645.225 668.317 645.225 668.317 645.96 667.388C650.372 661.826 654.857 656.324 659.38 650.852C651.56 651.4 644.011 652.552 636.333 654.117C634.616 654.462 634.616 654.462 632.865 654.813C629.118 655.568 625.374 656.334 621.63 657.102C619.692 657.497 619.692 657.497 617.714 657.901C589.791 663.605 562.054 670.043 534.38 676.852C533.54 677.058 532.699 677.264 531.834 677.476C520.981 680.14 510.169 682.941 499.38 685.852C497.963 686.234 497.963 686.234 496.517 686.624C462.929 695.698 429.562 705.39 396.38 715.852C395.49 716.132 394.6 716.412 393.682 716.701C328.461 737.242 263.201 760.787 202.207 791.927C200.4 792.842 198.583 793.739 196.763 794.629C190.391 797.757 184.099 800.987 177.872 804.399C176.721 805.028 175.569 805.658 174.382 806.306C172.088 807.564 169.8 808.83 167.516 810.104C158.935 814.81 152.201 817.911 142.38 815.852C133.342 812.347 128.591 806.586 124.607 797.926C119.67 785.553 121.049 773.552 125.806 761.27C143.957 721.861 188.244 706.719 225.936 692.751C240.01 687.572 254.178 682.668 268.38 677.852C269.578 677.444 269.578 677.444 270.8 677.028C300.677 666.867 330.942 658.162 361.38 649.852C362.378 649.579 363.376 649.307 364.404 649.026C449.749 625.786 536.729 608.873 694.389 585.651C695.252 585.542 696.116 585.432 697.006 585.319C698.587 585.119 700.168 584.925 701.751 584.738C706.235 584.166 709.705 583.707 712.806 580.274C713.24 579.651 713.675 579.029 714.122 578.387C714.624 577.679 715.126 576.971 715.642 576.242C716.441 575.09 716.441 575.09 717.255 573.914C718.417 572.27 719.58 570.627 720.744 568.985C721.343 568.135 721.941 567.286 722.559 566.411C725.464 562.329 728.456 558.312 731.443 554.289C736.355 547.651 741.17 540.953 745.914 534.193C751.115 526.787 756.421 519.459 761.73 512.131C763.391 509.837 765.048 507.54 766.705 505.242C772.179 497.648 777.676 490.071 783.221 482.528C787.874 476.193 792.473 469.819 797.068 463.442C799.225 460.448 801.392 457.461 803.568 454.481C810.116 445.496 816.467 436.397 822.704 427.194C827.611 419.957 832.599 412.781 837.638 405.635C841.303 400.429 844.873 395.166 848.38 389.852C844.759 392.882 841.251 395.92 837.943 399.289C835.511 401.765 833.01 404.087 830.38 406.352C827.774 408.597 825.291 410.897 822.88 413.352C819.934 416.344 816.85 419.105 813.669 421.844C811.445 423.796 809.268 425.794 807.099 427.807C801.867 432.659 796.512 437.27 790.951 441.746C788.591 443.679 786.324 445.675 784.068 447.727C741.488 485.86 741.488 485.86 716.412 485.258C697.886 483.816 682.649 472.976 669.38 460.852C668.255 459.85 668.255 459.85 667.107 458.828C658.218 450.501 648.696 438.262 647.779 425.715C647.74 423.865 647.734 422.014 647.755 420.164C647.764 419.164 647.772 418.164 647.781 417.133C648.106 406.129 650.971 396.244 654.38 385.852C654.979 383.942 655.577 382.032 656.173 380.121C669.866 337.042 689.573 295.133 711.018 255.38C712.571 252.498 714.11 249.611 715.65 246.723C726.525 226.37 737.742 206.239 749.751 186.531C751.481 183.687 753.198 180.836 754.915 177.985C762.558 165.369 770.501 152.991 778.693 140.727C779.145 140.05 779.597 139.373 780.062 138.676C798.676 110.847 798.676 110.847 806.505 100.539C806.999 99.8862 807.493 99.233 808.001 98.5601C823.167 78.6011 823.167 78.6011 832.884 77.0784C856.318 75.5598 886.122 84.1704 903.943 99.7268Z" fill="#FCFCFC"/>
<path d="M511.504 92.9137C516.578 96.5103 520.582 100.161 522.379 106.226C522.379 113.654 520.13 120.129 516.879 126.726C516.529 127.454 516.178 128.182 515.817 128.932C512.829 135.077 509.643 141.116 506.437 147.15C497.522 163.96 489.202 181.045 481.251 198.329C477.591 206.277 473.829 214.169 470.004 222.039C462.511 237.515 455.404 253.158 448.379 268.851C448.009 269.677 447.639 270.503 447.258 271.354C431.51 306.541 416.561 342.005 402.379 377.851C402.709 378.181 403.039 378.511 403.379 378.851C403.924 378.185 404.47 377.518 405.032 376.832C406.628 374.881 408.224 372.93 409.821 370.98C411.415 369.032 413.005 367.081 414.594 365.129C419.101 359.595 423.673 354.123 428.295 348.685C431.174 345.292 434.011 341.869 436.817 338.414C441.714 332.402 446.765 326.528 451.826 320.654C454.369 317.702 456.906 314.746 459.442 311.789C459.938 311.211 460.433 310.633 460.944 310.038C463.385 307.192 465.815 304.339 468.227 301.468C473.407 295.303 478.678 289.258 484.121 283.32C488.174 278.888 492.107 274.359 495.985 269.773C501.986 262.692 508.145 255.807 514.507 249.048C518.002 245.333 521.43 241.581 524.762 237.718C531.124 230.373 537.752 223.26 544.352 216.129C547.144 213.11 549.919 210.075 552.692 207.039C557.74 201.522 562.852 196.067 567.99 190.633C571.655 186.742 575.217 182.78 578.722 178.744C581.121 176.004 583.588 173.331 586.067 170.664C587.112 169.535 588.158 168.406 589.203 167.277C589.73 166.709 590.256 166.142 590.799 165.557C593.33 162.826 595.854 160.088 598.379 157.351C601.412 154.064 604.446 150.778 607.485 147.496C613.501 140.993 619.469 134.451 625.379 127.851C626.879 126.184 628.379 124.518 629.879 122.851C630.622 122.025 631.364 121.199 632.129 120.347C633.624 118.689 635.124 117.035 636.629 115.386C640.463 111.174 644.179 106.911 647.754 102.476C651.125 98.3311 654.567 94.2694 658.129 90.2887C658.577 89.7759 659.025 89.263 659.486 88.7345C663.018 84.8406 665.869 83.2008 671.043 82.4801C693.722 81.9715 722.161 92.7623 738.887 108.16C743.417 113.158 744.836 117.128 744.704 123.873C743.625 133.777 737.123 143.437 732.442 152.039C731.779 153.264 731.117 154.49 730.456 155.715C722.859 169.754 715.043 183.67 707.141 197.539C698.622 212.504 690.418 227.624 682.379 242.851C681.832 243.886 681.285 244.921 680.721 245.988C671.475 263.536 662.602 281.277 653.711 299.007C652.774 300.874 651.836 302.741 650.897 304.607C643.061 320.193 635.486 335.872 628.206 351.724C625.656 357.275 623.033 362.787 620.379 368.289C610.049 389.882 600.515 411.858 591.201 433.905C590.342 435.938 589.482 437.971 588.621 440.003C573.982 474.617 559.901 509.574 547.886 545.197C546.737 548.603 545.575 552.005 544.414 555.407C543.584 557.861 542.776 560.321 541.969 562.783C541.454 564.297 540.939 565.81 540.422 567.324C540.204 568.012 539.985 568.7 539.76 569.409C537.68 575.378 534.432 578.289 528.86 581.14C511.7 586.059 491.511 577.143 476.547 569.382C466.071 563.443 455.327 555.695 451.379 543.851C450.379 534.732 452.663 526.454 455.379 517.851C455.583 517.192 455.788 516.533 455.998 515.855C466.769 481.708 482.557 448.744 497.511 416.291C500.253 410.335 502.932 404.355 505.567 398.351C508.879 390.838 512.474 383.501 516.198 376.185C517.545 373.524 518.873 370.854 520.199 368.183C525.398 357.721 530.642 347.295 536.17 337.002C538.471 332.693 540.521 328.37 542.379 323.851C536.964 329.827 531.772 335.951 526.701 342.22C525.24 344.023 523.773 345.82 522.305 347.617C516.553 354.664 510.861 361.751 505.258 368.917C501.047 374.296 496.718 379.575 492.379 384.851C485.402 393.359 478.502 401.908 471.828 410.656C469.276 413.999 466.673 417.3 464.067 420.601C458.258 427.968 452.57 435.425 446.881 442.885C444.784 445.63 442.676 448.366 440.567 451.101C430.418 464.285 420.333 477.519 410.379 490.851C408.526 493.331 406.672 495.811 404.817 498.289C404.074 499.281 404.074 499.281 403.316 500.293C399.686 505.134 396.018 509.945 392.34 514.75C386.818 521.967 381.336 529.193 376.096 536.617C372.669 541.47 369.158 546.259 365.629 551.039C365.038 551.841 364.446 552.642 363.836 553.468C360.826 557.545 357.81 561.619 354.793 565.691C346.691 576.639 338.771 587.701 330.971 598.866C329.633 600.781 328.288 602.691 326.942 604.601C326.553 605.162 326.164 605.722 325.763 606.3C321.891 611.778 318.015 616.793 311.258 618.336C292.944 620.436 272.009 613.038 257.133 602.566C252.498 598.763 248.949 595.51 247.567 589.539C246.83 578.849 249.822 568.245 252.692 558.039C253.034 556.814 253.376 555.589 253.728 554.327C277.651 469.711 311.796 386.675 355.379 292.851C355.049 292.521 354.719 292.191 354.379 291.851C353.523 292.98 353.523 292.98 352.649 294.132C347.872 300.399 343.003 306.572 338.004 312.664C332.549 319.324 327.343 326.14 322.211 333.05C319.639 336.514 317.02 339.939 314.379 343.351C306.043 354.159 297.864 365.073 289.973 376.211C288.181 378.736 286.366 381.244 284.535 383.742C274.835 396.999 265.641 410.59 256.476 424.22C255.459 425.733 254.439 427.245 253.42 428.757C234.231 457.229 215.842 486.288 198.379 515.851C197.834 516.773 197.29 517.696 196.728 518.646C188.36 532.841 180.207 547.149 172.211 561.556C170.327 564.946 168.433 568.33 166.539 571.715C156.396 589.881 146.769 608.286 137.379 626.851C136.916 627.767 136.452 628.683 135.975 629.626C124.241 652.831 112.615 676.054 101.815 699.71C99.1974 705.437 96.5539 711.151 93.8792 716.851C93.398 717.904 92.9169 718.956 92.4212 720.04C89.6444 725.923 87.3729 729.854 81.3792 732.851C58.0033 734.696 38.0667 722.968 20.5667 708.531C11.0935 700.242 1.70589 691.431 0.0705777 678.39C-1.49455 643.009 23.3354 603.774 38.3792 572.851C38.733 572.12 39.0869 571.389 39.4514 570.636C50.361 548.145 62.6019 526.324 75.3792 504.851C76.4314 503.071 77.4834 501.291 78.5354 499.511C84.4675 489.513 90.6267 479.691 97.0034 469.971C98.5459 467.594 100.056 465.198 101.567 462.8C106.09 455.679 110.827 448.705 115.567 441.726C116.032 441.041 116.497 440.355 116.976 439.649C128.425 422.781 140.214 406.212 152.379 389.851C152.895 389.156 153.41 388.462 153.942 387.746C166.587 370.721 179.65 354.023 193.102 337.629C194.592 335.811 196.079 333.991 197.563 332.168C202.078 326.622 206.658 321.137 211.293 315.69C214.205 312.261 217.057 308.792 219.879 305.289C223.524 300.805 227.362 296.557 231.295 292.329C234.267 289.118 237.079 285.825 239.817 282.414C244.181 276.991 248.864 271.921 253.61 266.836C255.725 264.566 257.792 262.265 259.817 259.914C263.078 256.139 266.477 252.498 269.879 248.851C273.861 244.582 277.789 240.286 281.61 235.871C293.005 222.865 304.854 210.018 317.289 198.004C319.148 196.089 320.884 194.126 322.625 192.105C326.975 187.098 331.686 182.493 336.418 177.851C337.42 176.861 337.42 176.861 338.442 175.851C339.031 175.274 339.62 174.696 340.227 174.101C342.094 172.149 343.857 170.155 345.62 168.111C349.385 163.781 353.385 159.734 357.465 155.703C358.208 154.964 358.95 154.226 359.715 153.465C362.059 151.133 364.406 148.804 366.754 146.476C369.869 143.388 372.981 140.296 376.09 137.203C377.165 136.14 377.165 136.14 378.262 135.056C378.92 134.402 379.578 133.747 380.256 133.072C380.836 132.497 381.417 131.922 382.015 131.329C383.482 129.877 384.879 128.5 384.879 128.5C384.879 128.5 385.379 128 385.879 127.5C386.775 126.604 386.879 126.5 387.054 126.186C388.779 123.147 391.096 120.907 393.578 118.492C394.348 117.73 394.348 117.73 395.134 116.952C396.773 115.33 398.419 113.715 400.067 112.101C402.22 109.985 404.37 107.865 406.516 105.742C407.033 105.231 407.549 104.72 408.082 104.193C411.532 100.757 414.811 97.2255 417.945 93.5002C419.487 91.7278 421.123 90.1028 422.817 88.4762C426.406 84.9752 429.386 81.0953 432.387 77.0856C449.608 57.7706 494.675 82.3675 511.504 92.9137Z" fill="#FCFCFC"/>
<path d="M1405.88 15.3517C1425.38 19.905 1436.83 33.3127 1438.38 34.8518C1438.94 35.3932 1439.51 35.9346 1440.09 36.4924C1451.73 48.6899 1454.89 65.8352 1454.73 82.0846C1453.66 116.821 1432.85 146.821 1409.8 171.306C1408.17 173.078 1406.61 174.899 1405.05 176.723C1401.37 180.945 1397.41 184.79 1393.32 188.602C1392.57 189.296 1391.83 189.99 1391.06 190.705C1379.71 201.243 1367.9 210.946 1355.51 220.245C1353.43 221.817 1351.35 223.401 1349.27 224.989C1341.18 231.149 1332.95 236.978 1324.42 242.518C1322.25 243.934 1320.1 245.367 1317.94 246.801C1299.59 258.949 1280.56 270.072 1261.38 280.852C1261.94 280.997 1262.5 281.142 1263.08 281.291C1286.15 287.325 1305.01 295.536 1317.65 317.008C1318.67 318.927 1319.55 320.845 1320.38 322.852C1320.65 323.512 1320.93 324.172 1321.21 324.852C1329.62 347.385 1325.14 372.961 1315.63 394.387C1307.37 412.17 1295.65 427.519 1282.38 441.852C1281.47 442.863 1280.56 443.877 1279.65 444.891C1274.52 450.603 1269.33 455.983 1263.38 460.852C1262.3 461.768 1261.22 462.685 1260.14 463.602C1196.76 516.829 1105.14 558.013 1020.88 551.387C994.179 548.917 967.385 541.228 946.379 523.852C944.65 522.56 942.921 521.268 941.191 519.977C938.961 518.297 938.961 518.297 937.379 516.852C937.379 516.192 935.379 515.532 935.379 514.852C934.059 514.192 934.739 513.532 933.379 512.852C933.379 512.192 932.379 512.532 932.379 511.852C931.719 511.852 932.059 510.852 931.379 510.852C917.379 495.071 917.379 495.071 917.379 484.977C918.379 481.852 918.379 481.852 920.004 479.914C925.916 477.269 932.483 479.38 938.504 480.789C946.147 482.477 953.535 483.632 961.379 483.852C962.56 483.892 963.74 483.932 964.957 483.973C996.691 484.519 1028.16 478.047 1058.38 468.852C1059.54 468.501 1060.69 468.15 1061.89 467.789C1089.39 459.368 1116.06 449.497 1142.12 437.367C1145.09 435.984 1148.07 434.621 1151.05 433.262C1164.25 427.186 1176.86 420.203 1189.38 412.852C1190.23 412.355 1191.08 411.858 1191.95 411.345C1201.53 405.696 1210.67 399.803 1219.38 392.852C1220.38 392.054 1221.38 391.256 1222.41 390.434C1227.68 386.218 1227.68 386.218 1232.57 381.59C1234.38 379.852 1234.38 379.852 1236.38 379.852C1236.62 379.285 1236.87 378.717 1237.12 378.133C1238.61 375.437 1240.42 373.565 1242.57 371.352C1249.98 363.257 1255.74 354.299 1256.69 343.227C1256.35 339.582 1255.42 337.828 1253.38 334.852C1253.38 334.192 1253.38 333.532 1253.38 332.852C1221.87 319.95 1186.77 324.219 1154.46 332.132C1151.21 332.892 1147.94 333.514 1144.66 334.145C1131.76 336.963 1123.87 340.555 1116.44 351.789C1114.56 354.822 1112.75 357.881 1111 360.993C1109.12 364.316 1107.05 367.487 1104.94 370.667C1103.58 372.707 1102.26 374.765 1100.94 376.832C1098.79 380.22 1096.61 383.591 1094.42 386.958C1084.68 401.956 1075.11 417.061 1065.63 432.227C1064.69 433.733 1064.69 433.733 1063.72 435.269C1060.93 439.744 1058.14 444.225 1055.42 448.746C1054.98 449.48 1054.53 450.214 1054.07 450.969C1053.27 452.289 1052.48 453.614 1051.7 454.945C1047.37 462.044 1042.87 465.22 1035.01 467.302C1030.82 468.177 1026.71 468.556 1022.44 468.727C1021.09 468.783 1021.09 468.783 1019.71 468.841C1002.1 469.305 982.681 465.716 968.379 454.852C964.269 450.835 961.559 447.745 961.004 441.914C961.111 435.785 963.58 431.202 966.379 425.852C967.064 424.511 967.749 423.17 968.434 421.828C979.466 400.438 993.179 380.559 1006.51 360.559C1008.31 357.856 1010.11 355.151 1011.91 352.446C1019.22 341.454 1026.69 330.585 1034.38 319.852C1035.04 318.933 1035.69 318.015 1036.37 317.069C1037.91 314.93 1039.46 312.796 1041 310.664C1044.4 305.982 1047.78 301.296 1051.13 296.582C1061.9 281.433 1073.04 266.571 1084.38 251.852C1085.24 250.735 1086.1 249.618 1086.96 248.5C1088.57 246.404 1090.18 244.309 1091.8 242.215C1093.68 239.762 1095.56 237.299 1097.43 234.832C1104.45 225.59 1111.64 216.522 1119 207.547C1120.79 205.351 1122.55 203.135 1124.32 200.914C1133.36 189.58 1142.66 178.451 1152.06 167.408C1153.86 165.288 1155.65 163.162 1157.45 161.036C1159.28 158.867 1161.12 156.702 1162.95 154.537C1164.43 152.786 1165.91 151.03 1167.39 149.274C1170.35 145.765 1173.35 142.296 1176.38 138.852C1177.19 137.931 1178 137.011 1178.83 136.063C1189.14 125.043 1202.32 118.766 1216.38 113.852C1217.07 113.603 1217.77 113.355 1218.49 113.099C1235.51 107.088 1253.38 102.919 1271.44 101.914C1272.23 101.869 1273.02 101.823 1273.84 101.776C1279.51 101.584 1285.87 101.736 1290.38 105.539C1291.89 109.034 1291.93 111.042 1291.38 114.852C1287.56 123.578 1280.74 131.207 1274.99 138.738C1272.37 142.177 1269.78 145.64 1267.19 149.102C1266.19 150.441 1265.18 151.779 1264.18 153.117C1263.47 154.07 1263.47 154.07 1262.74 155.041C1260.78 157.645 1258.83 160.248 1256.88 162.852C1256.17 163.803 1255.45 164.755 1254.72 165.735C1252.98 168.044 1251.25 170.351 1249.51 172.657C1243.43 180.714 1237.47 188.837 1231.64 197.073C1229.35 200.297 1227.05 203.511 1224.75 206.727C1223.91 207.912 1223.06 209.097 1222.21 210.282C1221.61 211.13 1221 211.978 1220.38 212.852C1224.59 211.301 1228.43 209.253 1232.32 207.039C1233 206.65 1233.69 206.262 1234.4 205.861C1275.35 182.529 1315.97 157.147 1351.38 125.852C1352.32 125.025 1353.26 124.199 1354.22 123.348C1356.63 121.205 1359.01 119.039 1361.38 116.852C1361.97 116.318 1362.55 115.784 1363.16 115.235C1373.03 105.873 1386.29 91.2118 1387.75 77.2893C1387.63 73.8901 1387.63 73.8901 1385.94 71.5393C1368.41 59.9946 1333.29 70.8694 1314.58 74.6482C1257.38 86.4491 1202.31 107.548 1149.38 131.852C1148.4 132.299 1147.42 132.746 1146.42 133.207C1132.73 139.498 1119.52 146.51 1106.38 153.852C1105.32 154.441 1104.26 155.03 1103.17 155.638C1092.68 161.474 1082.2 167.322 1071.88 173.458C1066.2 176.625 1060.09 176.856 1053.85 175.168C1033.32 167.352 1015.41 150.329 1006.25 130.403C1005.31 127.655 1004.98 125.376 1004.88 122.477C1004.83 121.582 1004.78 120.688 1004.72 119.766C1006.02 114.016 1010.36 110.337 1015.14 107.176C1016.63 106.281 1018.13 105.403 1019.63 104.539C1020.48 104.043 1021.32 103.546 1022.2 103.035C1095.67 60.6022 1307.38 -7.64844 1405.88 15.3517Z" fill="#FCFCFC"/>
<path d="M1751.84 13.7424C1763.84 24.4758 1768.63 40.5513 1769.51 56.1525C1770.97 115.928 1721.79 183.194 1684.38 226.852C1683.65 227.735 1682.93 228.618 1682.18 229.528C1675.08 237.892 1667.08 243.238 1656.38 245.852C1655.54 246.057 1654.7 246.262 1653.84 246.473C1631.82 250.777 1601.61 250.266 1581.81 238.301C1574.88 233.305 1574.88 233.305 1573.97 228.871C1573.74 223.333 1574.78 220.248 1578.34 216.016C1581.71 212.432 1585.19 208.96 1588.71 205.516C1591.5 202.725 1594.07 199.815 1596.64 196.813C1598.63 194.565 1600.74 192.463 1602.88 190.352C1606.21 187.058 1609.34 183.676 1612.39 180.121C1614.87 177.29 1617.44 174.543 1620 171.789C1629.02 162.078 1637.69 152.061 1646.03 141.758C1647.77 139.602 1649.53 137.458 1651.29 135.321C1663.34 120.698 1674.86 105.616 1685.38 89.8518C1686.06 88.8364 1686.06 88.8364 1686.75 87.8005C1688.24 85.5736 1689.72 83.3391 1691.19 81.1018C1691.65 80.4164 1692.1 79.731 1692.57 79.0248C1695.73 74.1733 1698.17 69.2008 1700.38 63.8518C1691.9 67.8507 1684.08 72.4165 1676.31 77.6643C1675.32 78.3249 1674.32 78.9855 1673.29 79.6662C1667.2 83.746 1661.46 88.0918 1655.84 92.7924C1653.42 94.812 1650.97 96.776 1648.5 98.7268C1638.91 106.403 1629.68 114.368 1620.75 122.817C1617.76 125.646 1614.75 128.411 1611.62 131.09C1606.79 135.29 1602.27 139.805 1597.76 144.34C1596.32 145.787 1594.87 147.229 1593.42 148.67C1588.74 153.348 1584.18 158.084 1579.87 163.111C1577.71 165.627 1575.45 168.047 1573.19 170.477C1564.74 179.638 1556.69 189.148 1548.84 198.828C1546.95 201.147 1545.05 203.453 1543.13 205.75C1535.76 214.606 1528.68 223.613 1521.84 232.885C1520.39 234.836 1518.93 236.774 1517.46 238.707C1504.92 255.214 1493.25 272.208 1482.38 289.852C1481.91 290.602 1481.45 291.352 1480.97 292.124C1474.32 302.845 1467.91 313.69 1461.65 324.642C1460.5 326.645 1459.32 328.635 1458.14 330.621C1443.71 355.157 1431.09 382.875 1425.38 410.852C1425.04 412.428 1425.04 412.428 1424.7 414.035C1422.38 426.204 1421.8 438.36 1428.44 449.227C1437.04 456.91 1447.1 456.636 1458.05 456.032C1463.97 455.573 1469.65 454.388 1475.38 452.852C1476.5 452.554 1476.5 452.554 1477.65 452.25C1516.45 441.73 1553.73 422.25 1588.45 402.242C1594.7 398.644 1601.02 395.177 1607.35 391.71C1616.96 386.435 1626.52 381.088 1635.95 375.477C1693.99 340.94 1693.99 340.94 1713.31 344.539C1717.8 345.767 1721.99 347.603 1724.51 351.692C1726.36 356.305 1726.21 361.356 1724.64 366.047C1720.86 373.468 1714.88 379.667 1709.38 385.852C1708.71 386.604 1708.05 387.356 1707.37 388.131C1701.88 394.303 1696.17 400.212 1690.31 406.039C1689.47 406.889 1688.62 407.74 1687.75 408.615C1682.79 413.57 1677.71 418.304 1672.38 422.852C1671.26 423.825 1670.14 424.799 1669.03 425.774C1661.54 432.26 1653.9 438.5 1646.05 444.553C1644.47 445.783 1642.89 447.026 1641.31 448.27C1618.74 465.939 1594.46 481.033 1569.38 494.852C1568.42 495.378 1567.47 495.904 1566.49 496.445C1515.15 524.53 1452.09 547.017 1393.43 530.47C1367.96 522.809 1344.48 507.742 1331.22 484.094C1321.57 466.073 1317.95 447.755 1318.06 427.352C1318.07 426.654 1318.07 425.956 1318.07 425.237C1318.12 413.242 1318.96 401.618 1321.38 389.852C1321.53 389.098 1321.68 388.344 1321.83 387.567C1327.87 358.35 1339.34 330.548 1352.38 303.852C1352.9 302.782 1353.42 301.713 1353.96 300.612C1370.67 266.809 1391.54 234.822 1414.38 204.852C1415.25 203.693 1416.13 202.534 1417 201.375C1423.11 193.317 1429.49 185.489 1435.9 177.668C1437.18 176.093 1438.45 174.507 1439.71 172.918C1445.2 166.053 1451.13 159.675 1457.16 153.285C1459.49 150.808 1461.78 148.304 1464 145.727C1472.02 136.463 1480.48 127.653 1489.13 118.977C1489.92 118.18 1490.71 117.384 1491.53 116.563C1496.32 111.787 1501.23 107.238 1506.38 102.852C1507.51 101.878 1508.64 100.904 1509.76 99.9299C1512.7 97.4089 1515.65 94.8945 1518.59 92.3806C1520.26 90.9555 1521.92 89.5237 1523.57 88.09C1564.28 53.0391 1611.38 25.8003 1662.38 8.85176C1663.29 8.54721 1664.2 8.24267 1665.14 7.9289C1693.74 -1.44077 1726.45 -5.76364 1751.84 13.7424Z" fill="#FCFCFC"/>
</svg>
